<svg xmlns="http://www.w3.org/2000/svg" width="32" height="32" viewBox="0 0 24 24" fill="none">
  <path
    d="M12 15.25a3.25 3.25 0 1 0 0-6.5 3.25 3.25 0 0 0 0 6.5Z"
    stroke="currentColor"
    stroke-width="1.8"
    stroke-linecap="round"
    stroke-linejoin="round"
  />
  <path
    d="M19.4 15a1.8 1.8 0 0 0 .35 1.96l.04.04a2.2 2.2 0 0 1-1.56 3.76 2.2 2.2 0 0 1-1.56-.64l-.04-.04a1.8 1.8 0 0 0-1.95-.35 1.8 1.8 0 0 0-1.1 1.64V22a2.2 2.2 0 1 1-4.4 0v-.05a1.8 1.8 0 0 0-1.1-1.64 1.8 1.8 0 0 0-1.95.35l-.04.04a2.2 2.2 0 0 1-3.12 0 2.2 2.2 0 0 1 0-3.12l.04-.04A1.8 1.8 0 0 0 2.6 15a1.8 1.8 0 0 0-1.64-1.1H1a2.2 2.2 0 1 1 0-4.4h-.04A1.8 1.8 0 0 0 2.6 8a1.8 1.8 0 0 0-.35-1.96l-.04-.04a2.2 2.2 0 0 1 0-3.12 2.2 2.2 0 0 1 3.12 0l.04.04A1.8 1.8 0 0 0 7.32 3.3 1.8 1.8 0 0 0 8.42 1.66V1.6a2.2 2.2 0 1 1 4.4 0v.05a1.8 1.8 0 0 0 1.1 1.64 1.8 1.8 0 0 0 1.95-.35l.04-.04a2.2 2.2 0 0 1 3.12 0 2.2 2.2 0 0 1 0 3.12l-.04.04A1.8 1.8 0 0 0 21.4 9.5H21a2.2 2.2 0 1 1 0 4.4h.05a1.8 1.8 0 0 0-1.64 1.1Z"
    stroke="currentColor"
    stroke-width="1.8"
    stroke-linecap="round"
    stroke-linejoin="round"
  />
</svg>